<svg width="240" height="176" viewBox="0 0 240 176" xmlns="http://www.w3.org/2000/svg" xmlns:xlink="http://www.w3.org/1999/xlink"><svg id="code" data-name="Layer 1" width="50" height="66" viewBox="-1 -1 50 66"><defs><style>.acls-1{fill:#d4953f}</style></defs><title>code</title><path class="acls-1" d="M288 384L128 544l160 160 64-64-96-96 96-96-64-64zm128 64l96 96-96 96 64 64 160-160-160-160-64 64zM576 64H0v896h768V256L576 64zm128 832H64V128h448l192 192v576z"/></svg><svg id="gear" data-name="Layer 1" width="58" height="66" viewBox="-1 -1 58 66" x="50"><defs><style>.bcls-1{fill:#d4953f}</style></defs><title>gear</title><path class="bcls-1" d="M447.938 350C358.531 350 286 422.531 286 512c0 89.375 72.531 162.062 161.938 162.062 89.438 0 161.438-72.688 161.438-162.062-.001-89.469-72.001-162-161.438-162zm324.687 255.062l-29.188 70.312 52.062 102.25 6.875 13.5-72.188 72.188-118.436-55.937-70.312 28.875L505.75 945.5l-4.562 14.5H399.156L355 836.688l-70.312-29-102.404 51.938-13.5 6.75-72.156-72.125 55.875-118.5-28.969-70.25-109.065-35.626L0 565.188V463.219L123.406 419l28.969-70.188-51.906-102.469-6.844-13.438 72.062-72.062 118.594 55.844 70.219-29.031 35.656-109.188L394.75 64h102l44.188 123.469 70.125 29.031L713.5 164.531l13.625-6.844 72.125 72.062-55.875 118.406L772.25 418.5l109.375 35.656L896 458.75v101.938l-123.375 44.374z"/></svg><svg id="mail" data-name="Layer 1" width="66" height="50" viewBox="-1 -1 66 50" x="108"><defs><style>.ccls-1{fill:#2f5572}</style></defs><title>mail</title><path class="ccls-1" d="M0 0v8l32 16L64 8V0H0zm0 16v32h64V16L32 32z"/></svg><svg id="rocket" data-name="Layer 1" width="66" height="66" viewBox="-1 -1 66 66" y="66"><defs><style>.dcls-1{fill:#d4953f}</style></defs><title>rocket</title><path class="dcls-1" d="M716.737 124.056c-71.926 41.686-148.041 96.13-218.436 166.555-45 45.031-81.213 88.78-110.39 129.778L209.538 453.35.047 662.997l186.818 5.815L318.427 537.25c-46.439 96.224-50.536 160.019-50.536 160.019l58.854 58.792s65.827-6.255 162.737-53.163L355.107 837.119l5.88 186.881 209.585-209.521 33.086-179.252c41.403-29.02 85.185-65.046 129.716-109.545 70.425-70.455 124.837-146.541 166.555-218.466-45.97-9.351-88.125-28.488-121.397-61.668-33.275-33.367-52.538-75.523-61.795-121.492zm69.424-37.213c5.004 45 19.952 81.274 44.78 105.98 24.769 24.985 60.98 39.902 106.138 44.844C1003.063 104.323 1023.953 0 1023.953 0S919.63 20.858 786.161 86.843z"/></svg><svg id="server" data-name="Layer 1" width="50" height="66" viewBox="-1 -1 50 66" x="66" y="66"><defs><style>.ecls-1{fill:#d4953f}</style></defs><title>server</title><path class="ecls-1" d="M0 128v128s1.906 64 64 64h640c62.875 0 64-64 64-64V128s-.5-64-64-64H64C-.906 64 0 128 0 128zm0 320v128s1.906 64 64 64h640c62.875 0 64-64 64-64V448s-.5-64-64-64H64c-64.906 0-64 64-64 64zm0 320v128s1.906 64 64 64h640c62.875 0 64-64 64-64V768s-.5-64-64-64H64c-64.906 0-64 64-64 64zm64-192V448h64v128H64zm128 0V448h64v128h-64zm128 0V448h64v128h-64zm128 0V448h64v128h-64zm192-64v-64h64v64h-64zM64 256V128h64v128H64zm128 0V128h64v128h-64zm128 0V128h64v128h-64zm128 0V128h64v128h-64zm192-64v-64h64v64h-64zM64 896V768h64v128H64zm128 0V768h64v128h-64zm128 0V768h64v128h-64zm128 0V768h64v128h-64zm192-64v-64h64v64h-64z"/></svg><svg id="star" data-name="Layer 1" width="66" height="66" viewBox="-1 -1 66 66" x="174"><defs><style>.fcls-1{fill:#d4953f}</style></defs><title>star</title><path class="fcls-1" d="M32 0l-8 24H0l20 16-8 24 20-16 20 16-8-24 20-16H40z"/></svg><svg id="tools" data-name="Layer 1" width="66" height="66" viewBox="-1 -1 66 66" x="174" y="66"><defs><style>.gcls-1{fill:#d4953f}</style></defs><title>tools</title><path class="gcls-1" d="M286.547 465.016c16.843 16.812 81.716 85.279 81.716 85.279l35.968-37.093-56.373-58.248L456.072 340.02s-48.842-47.623-27.468-28.655c20.438-75.903 1.812-160.589-55.842-220.243-57.154-59.186-138.37-78.592-211.337-58.218l123.653 127.715-32.53 125.309-121.06 33.438L7.898 191.618c-19.718 75.436-.969 159.339 56.311 218.556 60.093 62.123 146.621 80.373 222.338 54.842zm412.268 124.215L549.694 736.539l245.932 254.805c20.062 20.812 46.498 31.188 72.872 31.188 26.25 0 52.624-10.375 72.811-31.188 40.249-41.624 40.249-108.997 0-150.62L698.815 589.231zm324.866-427.393L867.06-.001 405.387 477.297l56.373 58.248-276.335 285.616-63.154 33.749-89.217 145.559 22.719 23.562 140.839-92.247 32.655-65.312 276.336-285.554 56.404 58.248 461.674-477.328z"/></svg><svg id="twitter" data-name="Layer 1" width="53.78" height="44.06" viewBox="-1 -1 53.78 44.06" x="116" y="66"><defs><style>.hcls-1{fill:#fff}</style></defs><title>twitter</title><path class="hcls-1" d="M51.78 5a22.23 22.23 0 0 1-5.32 5.52v1.38a30.15 30.15 0 0 1-1.25 8.53 30.81 30.81 0 0 1-3.76 8.13 32.1 32.1 0 0 1-6.06 6.92 27 27 0 0 1-8.48 4.8 31 31 0 0 1-10.62 1.8A29.47 29.47 0 0 1 0 37.29a22.71 22.71 0 0 0 2.56.13 20.78 20.78 0 0 0 13.17-4.53 10.63 10.63 0 0 1-9.92-7.36 13.45 13.45 0 0 0 2 .16 11 11 0 0 0 2.79-.36 10.44 10.44 0 0 1-6.09-3.67 10.25 10.25 0 0 1-2.41-6.75v-.13a10.52 10.52 0 0 0 4.8 1.34 10.6 10.6 0 0 1-3.45-3.78 10.34 10.34 0 0 1-1.28-5.07 10.4 10.4 0 0 1 1.45-5.33 30.08 30.08 0 0 0 9.71 7.83A29.57 29.57 0 0 0 25.53 13a11.79 11.79 0 0 1-.26-2.43 10.23 10.23 0 0 1 3-7.48 10.64 10.64 0 0 1 15 0l.21.22A20.81 20.81 0 0 0 50.33.8a10.3 10.3 0 0 1-4.67 5.85A21.14 21.14 0 0 0 51.78 5z"/></svg><svg id="youtube" data-name="Layer 1" width="36.75" height="44" viewBox="-1 -1 36.75 44" y="132"><defs><style>.icls-1{fill:#fff}</style></defs><title>youtube</title><path class="icls-1" d="M22.13 29.15v5q0 1.57-.91 1.57a1.5 1.5 0 0 1-1.06-.52v-7.11a1.5 1.5 0 0 1 1.06-.54q.91 0 .91 1.6zm7.92 0v1.08h-2.1v-1.06q0-1.59 1.06-1.59t1 1.59zM7.42 24h2.5v-2.14h-7.3v2.2h2.46V37.4h2.34V24zm6.75 13.4h2.09V25.82h-2.09v8.86a1.86 1.86 0 0 1-1.31 1 .48.48 0 0 1-.49-.47 6.52 6.52 0 0 1 0-.82v-8.57h-2.14V35a5.79 5.79 0 0 0 .19 1.71 1.26 1.26 0 0 0 1.36.87 3.43 3.43 0 0 0 2.39-1.43v1.25zm10.05-3.47v-4.6A8.33 8.33 0 0 0 24 27a1.63 1.63 0 0 0-1.67-1.31A2.82 2.82 0 0 0 20.16 27v-5.1h-2.08v15.5h2.09v-1.13a2.91 2.91 0 0 0 2.18 1.31A1.62 1.62 0 0 0 24 36.27a8.61 8.61 0 0 0 .22-2.35zm7.92-.24v-.3H30a11.6 11.6 0 0 1 0 1.43.9.9 0 0 1-.94.85q-1.08 0-1.08-1.61V32h4.19v-2.41a4.65 4.65 0 0 0-.66-2.72 3.2 3.2 0 0 0-5 0 4.52 4.52 0 0 0-.66 2.72v4.05a4.4 4.4 0 0 0 .66 2.72 3 3 0 0 0 2.49 1.2 2.9 2.9 0 0 0 3-2.51 10.31 10.31 0 0 0 .09-1.36zM17.89 12.3V7.38q0-1.61-1-1.61t-1 1.61v4.92q0 1.64 1 1.64t1-1.64zm16.85 17.6a40.6 40.6 0 0 1-.61 8.2 4.45 4.45 0 0 1-1.36 2.32 4.1 4.1 0 0 1-2.39 1.08 125.31 125.31 0 0 1-13 .49 125.31 125.31 0 0 1-13-.49A4.15 4.15 0 0 1 2 40.42 4.28 4.28 0 0 1 .63 38.1 39.76 39.76 0 0 1 0 29.9a40.6 40.6 0 0 1 .61-8.2A4.45 4.45 0 0 1 2 19.37a4.25 4.25 0 0 1 2.41-1.1q4.29-.47 13-.47t13 .47a4.4 4.4 0 0 1 3.75 3.42 39.76 39.76 0 0 1 .58 8.21zM11.35 0h2.39l-2.83 9.35v6.35H8.57V9.35a39.68 39.68 0 0 0-1.43-5Q6.27 2 5.61 0H8.1l1.67 6.16zM20 7.8v4.1a4.59 4.59 0 0 1-.66 2.76 2.88 2.88 0 0 1-2.49 1.19 2.9 2.9 0 0 1-2.46-1.19 4.68 4.68 0 0 1-.66-2.76V7.8a4.59 4.59 0 0 1 .66-2.74 2.9 2.9 0 0 1 2.46-1.19 2.88 2.88 0 0 1 2.49 1.19A4.59 4.59 0 0 1 20 7.8zM27.87 4v11.7h-2.13v-1.27a3.37 3.37 0 0 1-2.41 1.45A1.31 1.31 0 0 1 22 15a6 6 0 0 1-.19-1.76V4h2.13v8.6a6.14 6.14 0 0 0 0 .82.49.49 0 0 0 .47.52 1.87 1.87 0 0 0 1.31-1V4h2.16z"/></svg></svg>